/* XPM */
static char *_0c03585ec2f416c95ac147565d2d28fWhi9oZIcl34U0nYm[] = {
/* columns rows colors chars-per-pixel */
"32 32 6 1 ",
"  c #F5DCA0",
". c #1E5934",
"X c #2B4132",
"o c #296A41",
"O c #258C3D",
"+ c #479D2E",
/* pixels */
"         +          +           ",
"                    +           ",
"                                ",
"     +                  +       ",
"     +                  +       ",
"     +                  +       ",
"                                ",
"                                ",
" +            XXXXX             ",
" +           XO+++OX            ",
"            XO+++++OXXX         ",
"           X+++++++++OOOOoX     ",
"          XoO+++++OOOOOOOO.X    ",
"          XOOOOOOO++++oOOO.X  + ",
"         XoO+OOOO++++++oO..X  ++",
"        Xo+++++OO+++++++...X  ++",
"        X+++++++O+++++++.o.X   +",
"    +   X+++++++++++++++.oo.X   ",
"    +   X++++++++.O+++++.oo.X   ",
"    +   X.++++++....OOO.ooo.X   ",
"         X........oo...ooo..X   ",
"          X.......ooooo+o..X    ",
"          +XXXXXX......++.X     ",
"          ++     XXXXXX++X      ",
"          ++            +       ",
"           +                    ",
"       +                        ",
"       +                    +   ",
"                            +   ",
"                            +   ",
"                                ",
"    +                           ",
"    +                +          ",
"                     +          ",
"          +          +          ",
"          +                     ",
"          +                     "
};
