/* XPM */
static char *ddd8b9291f52456efd71feb112f601401dYkSv9OpIY0PV7J[] = {
/* columns rows colors chars-per-pixel */
"32 32 84 1 ",
"  c #F5DCA0",
". c #2D1D2F",
"X c #250731",
"o c #1D3F35",
"O c #2A2A31",
"+ c #2A3332",
"@ c #2C3D32",
"# c #124A35",
"$ c #1D4E33",
"% c #175234",
"& c #1B5435",
"* c #1E5A34",
"= c #1C5339",
"- c #1E5D3A",
"; c #264133",
": c #2A4433",
"> c #264C35",
", c #2C4C36",
"< c #2E4C38",
"1 c #215533",
"2 c #2A5137",
"3 c #245A36",
"4 c #2B5439",
"5 c #225D39",
"6 c #2C5C3B",
"7 c #325436",
"8 c #315A3A",
"9 c #1E6335",
"0 c #1C6836",
"q c #1F6238",
"w c #1E763B",
"e c #256333",
"r c #2B6C32",
"t c #22623A",
"y c #2B663B",
"u c #2A6A3D",
"i c #356231",
"p c #356E33",
"a c #386D35",
"s c #336B38",
"d c #23733A",
"f c #2E773E",
"g c #307434",
"h c #387030",
"j c #337F31",
"k c #347D3E",
"l c #266542",
"z c #2E6540",
"x c #256A42",
"c c #296B41",
"v c #217441",
"b c #1F833D",
"n c #1E8A3F",
"m c #23843D",
"M c #2A853E",
"N c #248C3D",
"B c #2B8E3B",
"V c #378231",
"C c #388231",
"Z c #318C37",
"A c #3E8D35",
"S c #378439",
"D c #38833C",
"F c #348E39",
"G c #3B8C39",
"H c #26913D",
"J c #2F903A",
"K c #369337",
"L c #3A9536",
"P c #3E9A34",
"I c #329339",
"U c #33993A",
"Y c #42932F",
"T c #479D2E",
"R c #489E2D",
"E c #418931",
"W c #429232",
"Q c #439A31",
"! c #49A22D",
"~ c #46A030",
"^ c #4AA330",
"/ c #4DAB32",
"( c #51B235",
") c #278240",
/* pixels */
"           @+++++          ^    ",
"           3pahay          ^    ",
"          OdKRQQB4              ",
"   ^      tI~!!!PM>XO           ",
"   ^     :MPRTRTTUs782          ",
"        @wL~RTTTTQYYLd.O@       ",
"        @ZTRTTTTT!!~Lmys6       ",
"        @YTTTTTRRTRLNNNNc<      ",
"       :4GQ!~RRRKIKNmNHNM6:     ",
"       <cmPTTTTPBBNBJNNNN94     ",
"       :mnBJJJJJPQQQZvHNH9,   T ",
"       4NINnnnmJTR!!EfmNm9,   ^ ",
"      ,lmQFnNNJTTTTTRAxNq*,     ",
"     :zGLTPLInBRTTRTTTSw&*2     ",
"     8c!TTR!PmJRTTTTTTY&3*,     ",
"     s~^TTTRTKNTRTTTTTT&t*,     ",
"     a!RTTRTRQI~TTTRTRY&ct2:   T",
"     p!RTTTTTTT!RTTTTRY&cc5>:   ",
"/    a!~TTTTTRTVLTRRRRT&cct2@   ",
"^    aTTTRTTTTY%bQRQTTL&uct2@   ",
"(    8V!!!!!!Yr&0rBKIZruccq2@   ",
"     ;5YYAAYYV#*3=wmbw=ccc*2@   ",
"      2eeeeeee**uct**tlcc5*4@   ",
"      @;%%%%%%**xct55uSlu*3,    ",
"       <**111***uxcclkTc&*,     ",
"       E;,2,222*5t5t-gRA*4:     ",
" ^     !8:@::@:21111$g!R5:      ",
" ^             <:<:<:a/T2       ",
"               :@@@@+i!,        ",
"       ^                        ",
"       ^                        ",
"                                "
};
