/* XPM */
static char *_b2e8e2139704f8b865b8f33a422aa26RrMcfCIEhzFJpYa5[] = {
/* columns rows colors chars-per-pixel */
"32 32 3 1 ",
"  c #F5DCA0",
". c #479D2E",
"X c #479D2E",
/* pixels */
"               .               .",
"               .               .",
"                                ",
"                       .        ",
"                       .        ",
"      X                         ",
"      X                         ",
"                                ",
"                         .      ",
"          .              .      ",
"          .                     ",
"                               .",
"                  .            .",
"                  .             ",
"     X                          ",
"     X                          ",
"                       .        ",
"          .            .        ",
"          .                     ",
"                                ",
"   X                       .    ",
"   X                       .    ",
"                                ",
".              .       .        ",
".                      .        ",
"       X                        ",
"       X                        ",
"                   .            ",
"                   X            ",
"                                ",
"     X                       .  ",
"     X                       .  "
};
