/* XPM */
static char *_b2e8e2139704f8b865b8f33a422aa26RrMcfCIEhzFJpYa5[] = {
/* columns rows colors chars-per-pixel */
"32 32 8 1 ",
"  c #F5DCA0",
". c #311C2A",
"X c #482823",
"o c #45283C",
"O c #663931",
"+ c #8F563B",
"@ c #D9A066",
"- c #479D2E",
/* pixels */
"  -                           - ",
"  -                             ",
"  -                  -          ",
"                     -          ",
"                                ",
"               +O               ",
"      @@@@@@@@@@@@@@@@@@@@      ",
"     @++++++++++++++++++++@     ",
"     +++++++++++++++++++++O     ",
"     +OO+O+O++++OO+O++O+++O     ",
"     +O++O+OO+++OO+O+OO+O+O     ",
"     +++++++++++++++++++++O     ",
"     +++++++++++++++++++++O     ",
"     ++O+OO+++++O+OO+++OO+O     ",
"     +OO++O+OO++O+OO+O+O++O     ",
"     +++++++++++++++++++++O     ",
"     +++++++++++++++++++++O     ",
"     OO++++++++++++++++++OO     ",
"      OOOOOOOOOOOOOOOOOOOO      ",
"               oo             - ",
"               Oo             - ",
"               OO             - ",
"     -         XX               ",
"     -         XX               ",
"     -         XX               ",
" -             ..               ",
" -                              ",
"                       -        ",
"    -                  -        ",
"    -                           ",
"    -                           ",
"    -                           "
};
