/* XPM */
static char *_b2e8e2139704f8b865b8f33a422aa26RrMcfCIEhzFJpYa5[] = {
/* columns rows colors chars-per-pixel */
"32 32 9 1 ",
"  c #F5DCA0",
". c #2B4132",
"X c #566424",
"o c #296A41",
"O c #479D2E",
"+ c #B5B00D",
"@ c #B3932A",
"# c #FFC400",
"- c #479D2E",
/* pixels */
"    -          -               .",
"               -               .",
"                                ",
"                       -        ",
"               XXXX    -        ",
"    -         X@@@@X            ",
"    -        X@####@X           ",
"            X@##+##+@X          ",
"            X@#+##++@X          ",
"            X@#+##++@X          ",
"            X@#+++++@X          ",
"             X@++++@X     -     ",
"              X@@@@X      -     ",
"         oooo  XXXX       -     ",
"         oOOOo .                ",
"          oOOO. o               ",
"           ..oo.o      -        ",
"   -         ...o      -        ",
"   -            o               ",
"   -           o           -    ",
"               o           -    ",
"               o           -    ",
"         -                      ",
"-              -       -        ",
"-                      -        ",
"       -                        ",
"       -                        ",
"                   -            ",
"                   -            ",
"                                ",
"     -                       -  ",
"     -                       -  "
};
