/* XPM */
static char *_832f721c234405bf8f9eaa67ddcc7a1slQjHnAVCTph3sjl[] = {
/* columns rows colors chars-per-pixel */
"32 32 9 1 ",
"  c #F5DCA0",
". c #2F2F2E",
"X c #3B3B39",
"o c #4F4F4E",
"O c #9D5021",
"+ c #D67941",
"@ c gray72",
"# c white",
"- c #479D2E",
/* pixels */
"               -               -",
"               -               -",
"                                ",
"                       -        ",
"                       -        ",
"      -                         ",
"      -                         ",
"                                ",
"                 ..      -      ",
"          -     .O.  ... -      ",
"          -    .O#. .O+.        ",
"     ..        .O#.....        -",
"     .@...     .OO++++.        -",
"     .@##+.    .OO+.OOO.        ",
"      .@O++.  .OOO++++...       ",
"       .O+++. .@@#######.       ",
"       .OO++.....@@###..        ",
"        .OO.OOOOO.....          ",
"         ..OOOO++++##.          ",
"          .OOO+++O@@..          ",
"   -      .O....+...O.     -    ",
"   -       .X.X..o. .o.    -    ",
"          .. .  ..  ..          ",
"-              -       -        ",
"-                      -        ",
"       -                        ",
"       -                        ",
"                   -            ",
"                   -            ",
"                                ",
"     -                       -  ",
"     -                       -  "
};
